<svg enable-background="new 0 0 256 256" height="512" viewBox="0 0 256 256" width="512" xmlns="http://www.w3.org/2000/svg"><path d="m127.521 39.927c2.132 2.132 2.132 5.589 0 7.721l-6.444 6.444h37.683c3.015 0 5.46 2.444 5.46 5.46s-2.444 5.46-5.46 5.46h-37.683l6.444 6.444c2.132 2.132 2.132 5.589 0 7.721s-5.589 2.132-7.721 0l-15.764-15.764c-2.132-2.132-2.132-5.589 0-7.721l15.764-15.765c2.132-2.132 5.589-2.132 7.721 0z" fill="#facb35"/><path d="m166.001 87.936-6.444-6.444c-.643-.643-1.068-1.412-1.323-2.223h-15.427c-3.485 0-6.31 2.825-6.31 6.31v2.357z" fill="#edf4fc"/><path d="m221.629 79.269h-48.853l10.266 10.266c2.132 2.132 2.132 5.589 0 7.721l-15.764 15.764c-2.132 2.132-5.589 2.132-7.721 0s-2.132-5.589 0-7.721l6.444-6.444h-29.504v139.335c0 3.485 2.825 6.31 6.31 6.31h104.383c3.485 0 6.31-2.825 6.31-6.31v-127.05z" fill="#edf4fc"/><path d="m159.557 73.771c-2.132 2.132-2.132 5.589 0 7.721l6.444 6.444h-37.683c-3.015 0-5.46 2.444-5.46 5.46 0 3.015 2.444 5.46 5.46 5.46h37.683l-6.444 6.444c-2.132 2.132-2.132 5.589 0 7.721s5.589 2.132 7.721 0l15.764-15.764c2.132-2.132 2.132-5.589 0-7.721l-15.764-15.764c-2.132-2.133-5.589-2.133-7.721-.001z" fill="#45bdf0"/><path d="m227.939 111.14h25.561l-31.871-31.871v25.561c0 3.484 2.825 6.31 6.31 6.31z" fill="#45bdf0"/><path d="m104.036 63.413c-2.132-2.132-2.132-5.589 0-7.721l13.894-13.894-30.298-30.298h-78.822c-3.485 0-6.31 2.825-6.31 6.31v152.611c0 3.485 2.825 6.31 6.31 6.31h104.383c3.485 0 6.31-2.825 6.31-6.31v-91.541z" fill="#edf4fc"/><path d="m117.93 41.798-30.298-30.298v25.561c0 3.485 2.825 6.31 6.31 6.31h22.415z" fill="#facb35"/><path d="m94.633 116.294h-49.641c-1.381 0-2.5-1.119-2.5-2.5s1.119-2.5 2.5-2.5h49.641c1.381 0 2.5 1.119 2.5 2.5s-1.119 2.5-2.5 2.5z"/><path d="m94.633 134.313h-49.641c-1.381 0-2.5-1.119-2.5-2.5s1.119-2.5 2.5-2.5h49.641c1.381 0 2.5 1.119 2.5 2.5s-1.119 2.5-2.5 2.5z"/><path d="m94.633 62.236h-49.641c-1.381 0-2.5-1.119-2.5-2.5s1.119-2.5 2.5-2.5h49.641c1.381 0 2.5 1.119 2.5 2.5s-1.119 2.5-2.5 2.5z"/><path d="m94.633 80.255h-49.641c-1.381 0-2.5-1.119-2.5-2.5s1.119-2.5 2.5-2.5h49.641c1.381 0 2.5 1.119 2.5 2.5s-1.119 2.5-2.5 2.5z"/><path d="m94.633 98.274h-49.641c-1.381 0-2.5-1.119-2.5-2.5s1.119-2.5 2.5-2.5h49.641c1.381 0 2.5 1.119 2.5 2.5s-1.119 2.5-2.5 2.5z"/><path d="m94.633 152.332h-49.641c-1.381 0-2.5-1.119-2.5-2.5s1.119-2.5 2.5-2.5h49.641c1.381 0 2.5 1.119 2.5 2.5s-1.119 2.5-2.5 2.5z"/><path d="m27.721 64.444c-.64 0-1.28-.244-1.768-.732l-3.7-3.699c-.977-.977-.977-2.56 0-3.536.977-.977 2.559-.976 3.536 0l1.941 1.941 5.082-5.029c.981-.971 2.564-.962 3.536.018.971.981.963 2.564-.018 3.536l-6.849 6.779c-.489.481-1.125.722-1.76.722z"/><path d="m27.721 82.463c-.64 0-1.28-.244-1.768-.732l-3.7-3.699c-.977-.977-.977-2.56 0-3.536.977-.977 2.559-.976 3.536 0l1.941 1.941 5.081-5.029c.982-.971 2.564-.963 3.536.018.971.981.963 2.564-.018 3.536l-6.849 6.778c-.488.482-1.124.723-1.759.723z"/><path d="m27.721 100.482c-.64 0-1.28-.244-1.768-.732l-3.7-3.7c-.977-.976-.977-2.559 0-3.535.976-.977 2.56-.977 3.535 0l1.941 1.941 5.081-5.029c.981-.971 2.564-.963 3.536.018.971.981.963 2.564-.018 3.536l-6.849 6.779c-.487.482-1.123.722-1.758.722z"/><path d="m228.63 184.062h-49.641c-1.381 0-2.5-1.119-2.5-2.5s1.119-2.5 2.5-2.5h49.641c1.381 0 2.5 1.119 2.5 2.5s-1.119 2.5-2.5 2.5z"/><path d="m228.63 202.082h-49.641c-1.381 0-2.5-1.119-2.5-2.5s1.119-2.5 2.5-2.5h49.641c1.381 0 2.5 1.119 2.5 2.5s-1.119 2.5-2.5 2.5z"/><path d="m228.63 130.005h-49.641c-1.381 0-2.5-1.119-2.5-2.5s1.119-2.5 2.5-2.5h49.641c1.381 0 2.5 1.119 2.5 2.5s-1.119 2.5-2.5 2.5z"/><path d="m228.63 148.024h-49.641c-1.381 0-2.5-1.119-2.5-2.5s1.119-2.5 2.5-2.5h49.641c1.381 0 2.5 1.119 2.5 2.5s-1.119 2.5-2.5 2.5z"/><path d="m228.63 166.043h-49.641c-1.381 0-2.5-1.119-2.5-2.5s1.119-2.5 2.5-2.5h49.641c1.381 0 2.5 1.119 2.5 2.5s-1.119 2.5-2.5 2.5z"/><path d="m228.63 220.101h-49.641c-1.381 0-2.5-1.119-2.5-2.5s1.119-2.5 2.5-2.5h49.641c1.381 0 2.5 1.119 2.5 2.5s-1.119 2.5-2.5 2.5z"/><path d="m161.718 132.213c-.64 0-1.28-.244-1.768-.732l-3.7-3.7c-.977-.976-.977-2.559 0-3.535.976-.977 2.56-.977 3.535 0l1.941 1.941 5.081-5.029c.981-.971 2.564-.963 3.536.018.971.981.963 2.564-.018 3.536l-6.849 6.779c-.487.481-1.122.722-1.758.722z"/><path d="m161.718 150.232c-.64 0-1.28-.244-1.768-.732l-3.7-3.7c-.977-.976-.977-2.559 0-3.535.976-.977 2.56-.977 3.535 0l1.941 1.941 5.081-5.029c.981-.971 2.564-.963 3.536.018.971.981.963 2.564-.018 3.536l-6.849 6.779c-.487.481-1.122.722-1.758.722z"/><path d="m161.718 168.251c-.64 0-1.28-.244-1.768-.732l-3.7-3.7c-.977-.976-.977-2.559 0-3.535.976-.977 2.56-.977 3.535 0l1.941 1.941 5.081-5.029c.981-.971 2.564-.963 3.536.018.971.981.963 2.564-.018 3.536l-6.849 6.779c-.487.481-1.122.722-1.758.722z"/><path d="m123.661 83.276c-2.126 0-4.125-.828-5.628-2.332l-15.764-15.764c-1.504-1.503-2.332-3.502-2.332-5.628s.828-4.125 2.332-5.628l15.764-15.764c1.503-1.504 3.502-2.332 5.628-2.332s4.125.828 5.628 2.332c3.103 3.104 3.103 8.153 0 11.256l-2.176 2.176h31.648c4.389 0 7.96 3.571 7.96 7.96s-3.571 7.959-7.96 7.959h-31.648l2.176 2.177c3.104 3.103 3.104 8.153 0 11.256-1.503 1.504-3.502 2.332-5.628 2.332zm0-42.448c-.791 0-1.534.308-2.093.867l-15.764 15.765c-.559.559-.867 1.302-.867 2.093 0 .79.308 1.534.867 2.093l15.764 15.765c1.118 1.118 3.068 1.118 4.186 0 1.154-1.154 1.154-3.032 0-4.186l-6.444-6.444c-.715-.715-.929-1.79-.542-2.724.387-.935 1.298-1.543 2.31-1.543h37.684c1.632 0 2.96-1.328 2.96-2.959 0-1.632-1.328-2.96-2.96-2.96h-37.684c-1.011 0-1.923-.609-2.31-1.543s-.173-2.009.542-2.725l6.444-6.444c1.154-1.153 1.154-3.031 0-4.186-.559-.561-1.302-.869-2.093-.869z"/><path d="m166.001 90.436h-29.504c-1.381 0-2.5-1.119-2.5-2.5v-2.357c0-4.858 3.952-8.81 8.81-8.81h15.427c1.091 0 2.057.708 2.385 1.749.152.484.39.89.707 1.207l6.443 6.443c.715.715.929 1.791.542 2.725s-1.298 1.543-2.31 1.543zm-27.001-5h20.966l-2.176-2.176c-.448-.448-.835-.947-1.161-1.491h-13.822c-2.053 0-3.732 1.632-3.807 3.667z"/><path d="m247.19 247h-104.383c-4.858 0-8.81-3.952-8.81-8.81v-139.335c0-1.381 1.119-2.5 2.5-2.5h29.504c1.011 0 1.923.609 2.31 1.543s.173 2.009-.542 2.724l-6.444 6.444c-1.154 1.154-1.154 3.032 0 4.186 1.117 1.118 3.068 1.118 4.185 0l15.765-15.765c.559-.56.867-1.303.867-2.093 0-.791-.308-1.534-.867-2.093l-10.266-10.266c-.715-.715-.929-1.79-.542-2.724.387-.935 1.298-1.543 2.31-1.543h48.853c.663 0 1.299.263 1.768.732l31.871 31.871c.469.469.732 1.104.732 1.768v127.05c-.001 4.859-3.953 8.811-8.811 8.811zm-108.193-145.645v136.835c0 2.101 1.709 3.81 3.81 3.81h104.383c2.101 0 3.81-1.709 3.81-3.81v-126.015l-30.406-30.406h-41.782l5.998 5.999c1.504 1.503 2.332 3.502 2.332 5.628s-.828 4.125-2.332 5.629l-15.764 15.764c-1.503 1.503-3.502 2.332-5.628 2.332s-4.125-.828-5.628-2.332c-3.104-3.104-3.104-8.153 0-11.256l2.176-2.177h-20.969z"/><path d="m163.418 117.12c-2.126 0-4.125-.828-5.628-2.332-3.104-3.103-3.104-8.153 0-11.256l2.176-2.177h-31.648c-4.389 0-7.959-3.571-7.959-7.959 0-4.389 3.571-7.96 7.959-7.96h31.648l-2.176-2.176c-3.104-3.104-3.104-8.154 0-11.257 1.503-1.504 3.502-2.332 5.628-2.332s4.125.828 5.628 2.332l15.764 15.764c1.504 1.503 2.332 3.502 2.332 5.628s-.828 4.125-2.332 5.629l-15.764 15.764c-1.503 1.504-3.502 2.332-5.628 2.332zm-35.1-26.684c-1.632 0-2.959 1.328-2.959 2.96s1.328 2.959 2.959 2.959h37.684c1.011 0 1.923.609 2.31 1.543s.173 2.009-.542 2.724l-6.444 6.444c-1.154 1.154-1.154 3.032 0 4.186 1.118 1.118 3.068 1.118 4.186 0l15.765-15.764c.559-.56.867-1.303.867-2.093 0-.791-.308-1.534-.867-2.093l-15.764-15.764c-1.118-1.118-3.068-1.118-4.186 0-1.154 1.154-1.154 3.032 0 4.186l6.444 6.443c.715.715.929 1.791.542 2.725-.387.935-1.298 1.543-2.31 1.543h-37.685z"/><path d="m253.5 113.64h-25.561c-4.858 0-8.81-3.952-8.81-8.81v-25.561c0-1.011.609-1.923 1.543-2.31.933-.387 2.009-.174 2.724.542l31.871 31.871c.715.715.929 1.79.542 2.724-.386.935-1.298 1.544-2.309 1.544zm-29.371-28.336v19.525c0 2.101 1.709 3.81 3.81 3.81h19.525z"/><path d="m113.193 179.231h-104.383c-4.858 0-8.81-3.952-8.81-8.81v-152.611c0-4.858 3.952-8.81 8.81-8.81h78.822c.663 0 1.299.263 1.768.732l30.298 30.298c.977.976.977 2.559 0 3.535l-13.894 13.894c-.559.559-.867 1.302-.867 2.093 0 .79.308 1.534.867 2.093l15.467 15.467c.469.469.732 1.104.732 1.768v91.542c0 4.857-3.952 8.809-8.81 8.809zm-104.383-165.231c-2.101 0-3.81 1.709-3.81 3.81v152.611c0 2.101 1.709 3.81 3.81 3.81h104.383c2.101 0 3.81-1.709 3.81-3.81v-90.505l-14.734-14.736c-1.504-1.503-2.332-3.502-2.332-5.628s.828-4.125 2.332-5.628l12.126-12.126-27.798-27.798z"/><path d="m116.357 45.871h-22.415c-4.858 0-8.81-3.953-8.81-8.811v-25.56c0-1.011.609-1.923 1.543-2.31.934-.388 2.009-.173 2.724.542l30.298 30.298c.977.976.977 2.559 0 3.535l-1.573 1.573c-.468.47-1.104.733-1.767.733zm-26.225-28.335v19.525c0 2.101 1.709 3.811 3.81 3.811h19.525z"/><path d="m166.389 188.389c-.64 0-1.28-.244-1.768-.732l-7.778-7.778c-.977-.976-.977-2.559 0-3.535.976-.977 2.56-.977 3.535 0l7.778 7.778c.977.976.977 2.559 0 3.535-.487.488-1.127.732-1.767.732z"/><path d="m158.611 188.389c-.64 0-1.28-.244-1.768-.732-.977-.976-.977-2.559 0-3.535l7.778-7.778c.976-.977 2.56-.977 3.535 0 .977.976.977 2.559 0 3.535l-7.778 7.778c-.487.488-1.128.732-1.767.732z"/><path d="m166.389 206.389c-.64 0-1.28-.244-1.768-.732l-7.778-7.778c-.977-.976-.977-2.559 0-3.535.976-.977 2.56-.977 3.535 0l7.778 7.778c.977.976.977 2.559 0 3.535-.487.488-1.127.732-1.767.732z"/><path d="m158.611 206.389c-.64 0-1.28-.244-1.768-.732-.977-.976-.977-2.559 0-3.535l7.778-7.778c.976-.977 2.56-.977 3.535 0 .977.976.977 2.559 0 3.535l-7.778 7.778c-.487.488-1.128.732-1.767.732z"/><path d="m166.389 224.389c-.64 0-1.28-.244-1.768-.732l-7.778-7.778c-.977-.976-.977-2.559 0-3.535.976-.977 2.56-.977 3.535 0l7.778 7.778c.977.976.977 2.559 0 3.535-.487.488-1.127.732-1.767.732z"/><path d="m158.611 224.389c-.64 0-1.28-.244-1.768-.732-.977-.976-.977-2.559 0-3.535l7.778-7.778c.976-.977 2.56-.977 3.535 0 .977.976.977 2.559 0 3.535l-7.778 7.778c-.487.488-1.128.732-1.767.732z"/><path d="m32.389 120.389c-.64 0-1.28-.244-1.768-.732l-7.778-7.778c-.977-.976-.977-2.559 0-3.535.976-.977 2.56-.977 3.535 0l7.778 7.778c.977.976.977 2.559 0 3.535-.487.488-1.127.732-1.767.732z"/><path d="m24.611 120.389c-.64 0-1.28-.244-1.768-.732-.977-.976-.977-2.559 0-3.535l7.778-7.778c.976-.977 2.56-.977 3.535 0 .977.976.977 2.559 0 3.535l-7.778 7.778c-.487.488-1.128.732-1.767.732z"/><path d="m32.389 138.389c-.64 0-1.28-.244-1.768-.732l-7.778-7.778c-.977-.976-.977-2.559 0-3.535.976-.977 2.56-.977 3.535 0l7.778 7.778c.977.976.977 2.559 0 3.535-.487.488-1.127.732-1.767.732z"/><path d="m24.611 138.389c-.64 0-1.28-.244-1.768-.732-.977-.976-.977-2.559 0-3.535l7.778-7.778c.976-.977 2.56-.977 3.535 0 .977.976.977 2.559 0 3.535l-7.778 7.778c-.487.488-1.128.732-1.767.732z"/><path d="m32.389 156.389c-.64 0-1.28-.244-1.768-.732l-7.778-7.778c-.977-.976-.977-2.559 0-3.535.976-.977 2.56-.977 3.535 0l7.778 7.778c.977.976.977 2.559 0 3.535-.487.488-1.127.732-1.767.732z"/><path d="m24.611 156.389c-.64 0-1.28-.244-1.768-.732-.977-.976-.977-2.559 0-3.535l7.778-7.778c.976-.977 2.56-.977 3.535 0 .977.976.977 2.559 0 3.535l-7.778 7.778c-.487.488-1.128.732-1.767.732z"/></svg>