<svg id="Layer_1" height="512" viewBox="0 0 512 512" width="512" xmlns="http://www.w3.org/2000/svg" data-name="Layer 1"><path d="m481.09 159.08v187.14h-67.04a117 117 0 0 0 -115.72-133.99q-2.2 0-4.38.09v-53.24z" fill="#e48e66"/><path d="m415.29 329.19a116.96 116.96 0 1 1 -129.65-116.27q4.11-.465 8.31-.6 2.175-.09 4.38-.09a116.954 116.954 0 0 1 116.96 116.96z" fill="#f8ec7d"/><path d="m198.32 63.85 87.32 149.07a117.006 117.006 0 0 0 -103.03 133.3h-149.7z" fill="#6fe3ff"/><path d="m32.91 352.22h144.627a122.972 122.972 0 0 0 241.586 0h61.967a6 6 0 0 0 6-6v-187.14a6 6 0 0 0 -6-6h-187.14a6 6 0 0 0 -6 6v45.914l-84.45-144.177a6 6 0 0 0 -10.353 0l-165.414 282.371a6 6 0 0 0 5.177 9.032zm338.3 60.638a110.96 110.96 0 1 1 -84.9-193.976c2.564-.29 5.2-.481 7.83-.565h.054c1.358-.056 2.747-.084 4.132-.084a110.955 110.955 0 0 1 72.88 194.628zm103.88-247.778v175.14h-54.312c.327-3.656.512-7.343.512-11.03a123.1 123.1 0 0 0 -121.34-122.939v-41.171zm-276.77-89.359 77.646 132.555a122.976 122.976 0 0 0 -100.596 120.914c0 3.688.185 7.375.512 11.03h-132.503z" fill="#63316d"/></svg>