<?xml version="1.0" encoding="iso-8859-1"?>
<!-- Generator: Adobe Illustrator 19.0.0, SVG Export Plug-In . SVG Version: 6.00 Build 0)  -->
<svg version="1.1" id="Capa_1" xmlns="http://www.w3.org/2000/svg" xmlns:xlink="http://www.w3.org/1999/xlink" x="0px" y="0px"
	 viewBox="0 0 512 512" style="enable-background:new 0 0 512 512;" xml:space="preserve">
<circle style="fill:#3DE000;" cx="256" cy="256" r="256"/>
<path style="fill:#00CC00;" d="M512,256c0-10.299-0.626-20.451-1.809-30.433L376.388,91.764L92.144,398.333l107.409,107.409
	C217.715,509.83,236.603,512,256,512C397.385,512,512,397.385,512,256z"/>
<rect x="92.14" y="178.98" style="fill:#FFDA00;" width="327.71" height="219.36"/>
<g>
	<rect x="255.57" y="178.98" style="fill:#FFB600;" width="164.28" height="219.36"/>
	<path style="fill:#FFB600;" d="M419.856,398.333L297.532,283.901c-23.372-21.864-59.693-21.864-83.065,0L92.144,398.333H419.856z"
		/>
</g>
<path style="fill:#FF9500;" d="M297.532,283.901c-11.798-11.037-26.895-16.494-41.961-16.388v130.82h164.285L297.532,283.901z"/>
<path style="fill:#FFFFFF;" d="M419.856,178.979L419.856,178.979v-0.002h-0.002L301.488,68.247
	c-25.598-23.946-65.378-23.946-90.976,0L92.145,178.977h-0.001l0.001,0.001l-0.001,0.001h0.002l118.367,110.73
	c25.598,23.946,65.378,23.946,90.976,0L419.856,178.979L419.856,178.979z"/>
<path style="fill:#EBEBF0;" d="M419.856,178.978h-0.002L301.488,68.247c-12.911-12.078-29.429-18.056-45.917-17.95v257.362
	c16.487,0.105,33.006-5.872,45.917-17.95L419.856,178.978l0.001,0.001v-0.001H419.856z"/>
<polygon style="fill:#5A54E0;" points="284.886,91.764 284.886,124.889 319.695,124.889 264.634,179.95 219.824,135.14 
	135.422,219.541 159.666,242.143 219.824,181.985 264.634,226.795 343.26,148.169 343.258,184.142 376.383,184.144 376.388,91.764 
	"/>
<polygon style="fill:#3A41CC;" points="284.886,91.764 284.886,124.889 319.695,124.889 264.634,179.95 255.571,170.887 
	255.571,217.733 264.634,226.795 343.26,148.168 343.258,184.142 376.383,184.144 376.388,91.764 "/>
<g>
</g>
<g>
</g>
<g>
</g>
<g>
</g>
<g>
</g>
<g>
</g>
<g>
</g>
<g>
</g>
<g>
</g>
<g>
</g>
<g>
</g>
<g>
</g>
<g>
</g>
<g>
</g>
<g>
</g>
</svg>
