<?xml version="1.0" encoding="iso-8859-1"?>
<!-- Generator: Adobe Illustrator 19.0.0, SVG Export Plug-In . SVG Version: 6.00 Build 0)  -->
<svg version="1.1" id="Capa_1" xmlns="http://www.w3.org/2000/svg" xmlns:xlink="http://www.w3.org/1999/xlink" x="0px" y="0px"
	 viewBox="0 0 512 512" style="enable-background:new 0 0 512 512;" xml:space="preserve">
<circle style="fill:#5A54E0;" cx="256" cy="256" r="256"/>
<path style="fill:#3A41CC;" d="M512,256c0-7.02-0.294-13.971-0.849-20.849l-89.818-89.818L90.667,366.667l144.485,144.485
	C242.029,511.706,248.98,512,256,512C397.385,512,512,397.385,512,256z"/>
<rect x="90.67" y="145.33" style="fill:#FFDA00;" width="330.67" height="221.33"/>
<rect x="255.57" y="145.33" style="fill:#FFB600;" width="165.76" height="221.33"/>
<path style="fill:#FFF04A;" d="M421.333,366.667L297.907,251.203c-23.583-22.061-60.231-22.061-83.814,0L90.667,366.667H421.333z"/>
<path style="fill:#FFDA00;" d="M297.907,251.203c-11.903-11.135-27.135-16.642-42.335-16.536v132h165.762L297.907,251.203z"/>
<path style="fill:#FFB600;" d="M90.667,145.333l119.435,111.73c25.829,24.162,65.967,24.162,91.796,0l119.435-111.73L90.667,145.333
	L90.667,145.333z"/>
<path style="fill:#FF9500;" d="M255.571,145.333v129.842c16.634,0.106,33.3-5.926,46.326-18.112l119.435-111.73L255.571,145.333
	L255.571,145.333z"/>
<g>
</g>
<g>
</g>
<g>
</g>
<g>
</g>
<g>
</g>
<g>
</g>
<g>
</g>
<g>
</g>
<g>
</g>
<g>
</g>
<g>
</g>
<g>
</g>
<g>
</g>
<g>
</g>
<g>
</g>
</svg>
