<?xml version="1.0" encoding="iso-8859-1"?>
<!-- Generator: Adobe Illustrator 19.0.0, SVG Export Plug-In . SVG Version: 6.00 Build 0)  -->
<svg version="1.1" id="Capa_1" xmlns="http://www.w3.org/2000/svg" xmlns:xlink="http://www.w3.org/1999/xlink" x="0px" y="0px"
	 viewBox="0 0 512 512" style="enable-background:new 0 0 512 512;" xml:space="preserve">
<circle style="fill:#5A54E0;" cx="256" cy="256" r="256"/>
<path style="fill:#3A41CC;" d="M512,256c0-13.656-1.081-27.059-3.14-40.136L379.309,86.313l-42.153,32.986L290,72.143l-68,51.001
	l70.299,70.3l0.079,4.136L181.111,86.313l-45.819,38.138L294,283.159L91.802,398.789L198.533,505.52
	C217.007,509.758,236.241,512,256,512C397.385,512,512,397.385,512,256z"/>
<g>
	<circle style="fill:#FFFFFF;" cx="156.9" cy="103.82" r="29.883"/>
	<path style="fill:#FFFFFF;" d="M91.803,206.348c0-35.953,29.146-65.099,65.099-65.099S222,170.395,222,206.348H91.803z"/>
</g>
<g>
	<circle style="fill:#EBEBF0;" cx="355.1" cy="103.82" r="29.883"/>
	<path style="fill:#EBEBF0;" d="M290,206.348c0-35.953,29.146-65.099,65.099-65.099s65.099,29.146,65.099,65.099H290z"/>
</g>
<rect x="91.8" y="178.98" style="fill:#FFDA00;" width="328.39" height="219.81"/>
<rect x="255.57" y="178.98" style="fill:#FFB600;" width="164.63" height="219.81"/>
<path style="fill:#FFF04A;" d="M420.198,398.789l-122.579-114.67c-23.421-21.91-59.817-21.91-83.238,0L91.803,398.789H420.198z"/>
<path style="fill:#FFDA00;" d="M297.619,284.119c-11.822-11.059-26.95-16.528-42.048-16.422V398.79h164.626L297.619,284.119z"/>
<path style="fill:#FFB600;" d="M91.803,178.976l118.615,110.962c25.651,23.996,65.514,23.996,91.165,0l118.615-110.962
	L91.803,178.976z"/>
<path style="fill:#FF9500;" d="M255.571,178.977v128.95c16.521,0.105,33.074-5.885,46.011-17.987l118.615-110.962L255.571,178.977
	L255.571,178.977z"/>
<circle style="fill:#FA5D0F;" cx="256" cy="97.64" r="42.5"/>
<path style="fill:#D84C0F;" d="M256,55.144c-0.144,0-0.285,0.01-0.429,0.011v84.978c0.144,0.001,0.285,0.011,0.429,0.011
	c23.472,0,42.5-19.028,42.5-42.5S279.472,55.144,256,55.144z"/>
<path style="fill:#FA5D0F;" d="M163.417,243.456c0-51.132,41.451-92.583,92.583-92.583s92.583,41.451,92.583,92.583H163.417z"/>
<path style="fill:#D84C0F;" d="M256,150.873c-0.143,0-0.285,0.005-0.429,0.005v92.578h93.012
	C348.583,192.324,307.132,150.873,256,150.873z"/>
<g>
</g>
<g>
</g>
<g>
</g>
<g>
</g>
<g>
</g>
<g>
</g>
<g>
</g>
<g>
</g>
<g>
</g>
<g>
</g>
<g>
</g>
<g>
</g>
<g>
</g>
<g>
</g>
<g>
</g>
</svg>
