<svg id="Capa_1" enable-background="new 0 0 512 512" height="512" viewBox="0 0 512 512" width="512" xmlns="http://www.w3.org/2000/svg"><g><g><path clip-rule="evenodd" d="m241.204 53.959c15.878 4.036 30.861 10.32 44.603 18.479l12.905-12.886c6.149-6.14 16.196-6.14 22.345 0l37.328 37.275c6.149 6.14 6.149 16.172 0 22.313l-12.905 12.886c8.17 13.722 14.464 28.684 18.505 44.539h18.217c8.69 0 15.792 7.121 15.792 15.798v52.697c0 8.706-7.102 15.798-15.792 15.798h-18.217c-4.042 15.855-10.335 30.817-18.505 44.539l12.905 12.886c6.149 6.14 6.149 16.172 0 22.313l-37.328 37.275c-6.149 6.14-16.196 6.14-22.345 0l-12.905-12.886c-13.742 8.158-28.725 14.443-44.603 18.479v18.19c0 8.677-7.102 15.769-15.792 15.769h-52.802c-8.69 0-15.82-7.092-15.82-15.769v-18.19c-15.878-4.036-30.861-10.32-44.603-18.479l-12.905 12.885c-6.149 6.14-16.196 6.14-22.345 0l-37.328-37.275c-6.149-6.14-6.149-16.172 0-22.313l12.905-12.886c-8.17-13.722-14.464-28.684-18.505-44.539h-18.217c-8.69 0-15.792-7.091-15.792-15.797v-52.697c0-8.677 7.102-15.798 15.792-15.798h18.217c4.042-15.855 10.335-30.817 18.505-44.539l-12.905-12.886c-6.149-6.14-6.149-16.172 0-22.313l37.328-37.275c6.149-6.14 16.196-6.14 22.345 0l12.905 12.886c13.742-8.158 28.725-14.443 44.603-18.479v-18.19c0-8.677 7.131-15.769 15.82-15.769h52.802c8.69 0 15.792 7.092 15.792 15.769z" fill="#737a93" fill-rule="evenodd"/></g><g><path clip-rule="evenodd" d="m198.997 346.88c70.701 0 128.354-57.569 128.354-128.169s-57.652-128.169-128.354-128.169-128.353 57.569-128.353 128.169 57.652 128.169 128.353 128.169z" fill="#fe636e" fill-rule="evenodd"/></g><g><path clip-rule="evenodd" d="m226.914 282.738c28.09-10.407 48.241-37.476 48.241-69.014 0-25.196-12.847-47.537-32.305-60.827-20.44-13.924-16.484 8.101-16.484 11.791v44.222c0 15.452-12.154 28.194-27.368 29.232-15.214-1.038-27.368-13.78-27.368-29.232v-44.222c0-3.69 3.955-25.715-16.484-11.791-19.458 13.29-32.305 35.631-32.305 60.827 0 31.538 20.151 58.607 48.241 69.014v61.086c8.978 1.989 18.332 3.056 27.917 3.056s18.938-1.067 27.917-3.056v-61.086z" fill="#c1eaf4" fill-rule="evenodd"/></g><g><path clip-rule="evenodd" d="m226.914 343.824v-61.086c28.09-10.407 48.241-37.476 48.241-69.014 0-25.196-12.847-47.537-32.305-60.827-4.359-2.969-7.593-4.295-10.018-4.526 14.954 13.491 24.395 33.008 24.395 54.6 0 30.385-18.679 56.618-45.152 67.803-4.388 1.845-3.089 7.034-3.089 12.281v63.422c6.12-.462 12.096-1.355 17.928-2.653z" fill="#99cfe0" fill-rule="evenodd"/></g><g><path clip-rule="evenodd" d="m327.351 218.711c0-70.773-57.479-128.169-128.354-128.169-4.994 0-9.931.288-14.781.865 62.445 8.648 110.541 62.182 110.541 126.929 0 48.921-27.455 91.442-67.843 113.034v12.454c57.45-12.713 100.437-63.911 100.437-125.113z" fill="#f93e55" fill-rule="evenodd"/></g><g><path clip-rule="evenodd" d="m358.386 96.826-37.328-37.275c-6.149-6.14-16.196-6.14-22.345 0l-12.905 12.886c-13.742-8.158-28.725-14.443-44.603-18.479v-18.19c0-8.677-7.102-15.769-15.792-15.769h-35.74c10.508 21.736 19.429 45.808 26.444 71.695 62.791 8.331 111.234 62.038 111.234 127.016 0 61.202-42.987 112.4-100.437 125.113-1.53.346-3.06.663-4.59.951-5.514 25.859-12.876 50.247-21.796 72.646h24.885c8.69 0 15.792-7.092 15.792-15.769v-18.19c15.878-4.036 30.861-10.32 44.603-18.479l12.905 12.886c6.149 6.14 16.196 6.14 22.345 0l37.328-37.275c6.149-6.14 6.149-16.172 0-22.313l-12.905-12.886c8.17-13.722 14.464-28.684 18.505-44.539h18.217c8.69 0 15.792-7.092 15.792-15.798v-52.697c0-8.677-7.102-15.798-15.792-15.798h-18.217c-4.042-15.855-10.335-30.817-18.505-44.539l12.905-12.886c6.149-6.138 6.149-16.17 0-22.311z" fill="#606b82" fill-rule="evenodd"/></g><g><path clip-rule="evenodd" d="m385.292 301.072c-8.343 2.133-16.225 5.42-23.442 9.715l-6.784-6.775c-3.204-3.2-8.488-3.2-11.721 0l-19.602 19.603c-3.233 3.2-3.233 8.475 0 11.704l6.755 6.775c-4.273 7.207-7.593 15.077-9.729 23.408h-9.556c-4.561 0-8.286 3.719-8.286 8.274v27.704c0 4.555 3.724 8.274 8.286 8.274h9.585c2.107 8.331 5.427 16.201 9.7 23.408l-6.755 6.775c-3.233 3.229-3.233 8.475 0 11.704l19.602 19.603c3.233 3.2 8.517 3.2 11.721 0l6.784-6.775c7.217 4.267 15.099 7.582 23.442 9.715v9.542c0 4.555 3.724 8.274 8.286 8.274h27.744c4.561 0 8.286-3.719 8.286-8.274v-9.542c8.343-2.133 16.225-5.42 23.442-9.715l6.784 6.775c3.233 3.2 8.516 3.2 11.721 0l19.631-19.603c3.233-3.229 3.233-8.475 0-11.704l-6.784-6.775c4.302-7.207 7.593-15.077 9.729-23.408h9.556c4.561 0 8.314-3.719 8.314-8.274v-27.704c0-4.555-3.753-8.274-8.314-8.274h-9.556c-2.136-8.331-5.427-16.201-9.729-23.408l6.784-6.775c3.233-3.229 3.233-8.504 0-11.704l-19.631-19.603c-3.204-3.2-8.488-3.2-11.721 0l-6.784 6.775c-7.217-4.295-15.099-7.582-23.442-9.715v-9.542c0-4.555-3.724-8.302-8.286-8.302h-27.744c-4.561 0-8.286 3.748-8.286 8.302z" fill="#d7d0d6" fill-rule="evenodd"/></g><g><path clip-rule="evenodd" d="m354.517 387.614c0 29.203 23.702 52.87 52.947 52.87 29.216 0 52.918-23.668 52.918-52.87 0-29.174-23.702-52.842-52.918-52.842-29.245 0-52.947 23.668-52.947 52.842z" fill="#e8eaea" fill-rule="evenodd"/></g><g><path clip-rule="evenodd" d="m425.074 379.571c0 22.053-3.58 42.665-9.844 60.366 25.549-3.776 45.152-25.743 45.152-52.323 0-24.792-17.091-45.606-40.157-51.314 3.146 13.405 4.849 28.021 4.849 43.271z" fill="#d4d6d8" fill-rule="evenodd"/></g><g><path clip-rule="evenodd" d="m420.224 336.3c23.067 5.708 40.157 26.522 40.157 51.314 0 26.579-19.602 48.546-45.152 52.323-6.986 19.747-17.293 35.804-29.649 46.009.982 3.488 4.215 6.054 7.997 6.054h27.744c4.561 0 8.286-3.719 8.286-8.274v-9.542c11.115-2.825 15.82-7.726 20.613-8.101 2.743-.202 5.543 1.095 9.614 5.16 3.233 3.2 8.516 3.2 11.721 0l19.631-19.603c3.233-3.229 3.233-8.475 0-11.704l-6.784-6.775c4.302-7.207 7.593-15.077 9.729-23.408h9.556c4.561 0 8.314-3.719 8.314-8.274v-27.704c0-4.555-3.753-8.274-8.314-8.274h-9.556c-2.136-8.331-5.427-16.201-9.729-23.408l6.784-6.775c3.233-3.229 3.233-8.504 0-11.704l-19.631-19.603c-3.204-3.2-8.488-3.2-11.721 0l-6.784 6.775c-7.217-4.295-15.099-7.582-23.442-9.715v-9.542c0-4.526-3.695-8.245-8.228-8.302h-.058-25.752c10.999 13.233 19.631 31.654 24.654 53.073z" fill="#baafb9" fill-rule="evenodd"/></g></g></svg>